<?xml version="1.0" encoding="UTF-8" standalone="no"?>
<!-- Created with Inkscape (http://www.inkscape.org/) -->

<svg
   xmlns:dc="http://purl.org/dc/elements/1.1/"
   xmlns:cc="http://creativecommons.org/ns#"
   xmlns:rdf="http://www.w3.org/1999/02/22-rdf-syntax-ns#"
   xmlns:svg="http://www.w3.org/2000/svg"
   xmlns="http://www.w3.org/2000/svg"
   xmlns:sodipodi="http://sodipodi.sourceforge.net/DTD/sodipodi-0.dtd"
   xmlns:inkscape="http://www.inkscape.org/namespaces/inkscape"
   height="434"
   id="svg18453"
   inkscape:version="0.48.4 r9939"
   sodipodi:docname="ciseaux.svg"
   sodipodi:version="0.32"
   width="399"
   version="1.1">
  <metadata
     id="metadata3">
    <rdf:RDF>
      <cc:Work
         rdf:about="">
        <dc:title>Scissors</dc:title>
        <dc:description>Generic scissor outline</dc:description>
        <dc:subject>
          <rdf:Bag>
            <rdf:li>hash</rdf:li>
            <rdf:li />
            <rdf:li>education</rdf:li>
          </rdf:Bag>
        </dc:subject>
        <dc:publisher>
          <cc:Agent
             rdf:about="http://www.openclipart.org">
            <dc:title>Jon Phillips</dc:title>
          </cc:Agent>
        </dc:publisher>
        <dc:creator>
          <cc:Agent>
            <dc:title>Jon Phillips</dc:title>
          </cc:Agent>
        </dc:creator>
        <dc:rights>
          <cc:Agent>
            <dc:title>Jon Phillips</dc:title>
          </cc:Agent>
        </dc:rights>
        <dc:date />
        <dc:format>image/svg+xml</dc:format>
        <dc:type
           rdf:resource="http://purl.org/dc/dcmitype/StillImage" />
        <cc:license
           rdf:resource="http://web.resource.org/cc/PublicDomain" />
        <dc:language>en</dc:language>
      </cc:Work>
      <cc:License
         rdf:about="http://web.resource.org/cc/PublicDomain">
        <cc:permits
           rdf:resource="http://web.resource.org/cc/Reproduction" />
        <cc:permits
           rdf:resource="http://web.resource.org/cc/Distribution" />
        <cc:permits
           rdf:resource="http://web.resource.org/cc/DerivativeWorks" />
      </cc:License>
    </rdf:RDF>
  </metadata>
  <defs
     id="defs48974" />
  <sodipodi:namedview
     bordercolor="#666666"
     borderopacity="1.0"
     id="base"
     inkscape:cx="475.26707"
     inkscape:cy="324.60709"
     inkscape:pageopacity="0.0"
     inkscape:pageshadow="2"
     inkscape:window-height="878"
     inkscape:window-width="1440"
     inkscape:window-x="-8"
     inkscape:window-y="-8"
     inkscape:zoom="0.61399264"
     pagecolor="#ffffff"
     showgrid="false"
     inkscape:window-maximized="1"
     inkscape:current-layer="svg18453" />
  <path
     d="m 229.05157,242.45995 c 40.1155,55.30522 48.78248,95.72598 62.36912,91.85768 10.62008,-3.02363 5.5161,-12.1129 33.5823,-18.52574 26.94828,-6.15744 54.48106,15.96667 60.20111,42.65946 7.61903,26.16275 -4.73032,59.04693 -32.35823,67.16486 -27.34078,9.895 -59.92949,-6.18862 -69.65752,-33.41936 C 269.09263,361.0666 261.86434,319.95247 216.30816,284.66402 L 181.34117,257.57843 60.332669,86.738543 C 46.802289,64.650823 38.678529,35.266583 56.220989,7.2934527 L 229.05157,242.45995 z m 129.81982,103.11591 c -23.30556,-23.24971 -64.5336,-9.07061 -64.4631,21.96506 -1.65035,28.55353 33.05479,54.55846 58.85208,38.25977 21.72094,-11.42803 21.56521,-44.30876 5.61102,-60.22483 z"
     id="path48999"
     sodipodi:nodetypes="cccccczcccccccc"
     style="stroke:#000000;stroke-width:7.54062271;stroke-miterlimit:4;stroke-opacity:1;marker-start:none"
     inkscape:connector-curvature="0" />
  <path
     d="m 167.23913,240.95208 c -39.99272,55.39455 -48.56918,95.83447 -62.16419,91.99646 -10.626681,-3 -5.543051,-12.10035 -33.624061,-18.45086 -26.96162,-6.09741 -54.44504,16.08805 -60.10583,42.79361 -7.56022,26.17937 4.86229,59.03622 32.50809,67.09243 27.36294,9.8341 59.915701,-6.32203 69.582661,-33.57451 14.0265,-31.16135 21.16299,-72.29173 66.64075,-107.68138 l 34.90671,-27.1638 120.6271,-171.109037 c 13.48121,-22.11788 21.53977,-51.5201 3.93501,-79.4540403 L 167.23913,240.95208 z M 37.649609,344.35711 c 23.25361,-23.30157 64.513111,-9.21439 64.511511,21.82128 1.71441,28.54979 -32.932991,54.632 -58.766351,38.39096 -21.7463,-11.37965 -21.66398,-44.26066 -5.74516,-60.21224 z"
     id="path49000"
     sodipodi:nodetypes="cccccczcccccccc"
     style="stroke:#000000;stroke-width:7.54062271;stroke-miterlimit:4;stroke-opacity:1;marker-start:none"
     inkscape:connector-curvature="0" />
</svg>
