<?xml version="1.0" encoding="UTF-8" standalone="no"?>
<!-- Generator: Adobe Illustrator 17.0.0, SVG Export Plug-In . SVG Version: 6.00 Build 0)  -->

<svg
   xmlns:dc="http://purl.org/dc/elements/1.1/"
   xmlns:cc="http://creativecommons.org/ns#"
   xmlns:rdf="http://www.w3.org/1999/02/22-rdf-syntax-ns#"
   xmlns:svg="http://www.w3.org/2000/svg"
   xmlns="http://www.w3.org/2000/svg"
   xmlns:sodipodi="http://sodipodi.sourceforge.net/DTD/sodipodi-0.dtd"
   xmlns:inkscape="http://www.inkscape.org/namespaces/inkscape"
   version="1.1"
   id="Layer_1"
   x="0px"
   y="0px"
   width="100px"
   height="100px"
   viewBox="0 0 100 100"
   enable-background="new 0 0 100 100"
   xml:space="preserve"
   inkscape:version="0.48.4 r9939"
   sodipodi:docname="upload.svg"><metadata
   id="metadata3009"><rdf:RDF><cc:Work
       rdf:about=""><dc:format>image/svg+xml</dc:format><dc:type
         rdf:resource="http://purl.org/dc/dcmitype/StillImage" /></cc:Work></rdf:RDF></metadata><defs
   id="defs3007" /><sodipodi:namedview
   pagecolor="#ffffff"
   bordercolor="#666666"
   borderopacity="1"
   objecttolerance="10"
   gridtolerance="10"
   guidetolerance="10"
   inkscape:pageopacity="0"
   inkscape:pageshadow="2"
   inkscape:window-width="1680"
   inkscape:window-height="988"
   id="namedview3005"
   showgrid="false"
   inkscape:zoom="2.36"
   inkscape:cx="56.064132"
   inkscape:cy="42.834464"
   inkscape:window-x="-8"
   inkscape:window-y="-8"
   inkscape:window-maximized="1"
   inkscape:current-layer="Layer_1" />
<g
   id="g2999"
   transform="matrix(1,0,0,-1,0,100)">
	<path
   d="M 85.886,49.615 H 67.685 c -2.218,0 -4.185,1.374 -4.865,3.406 -1.803,5.375 -6.957,8.983 -12.819,8.983 -5.864,0 -11.016,-3.608 -12.818,-8.983 -0.682,-2.032 -2.647,-3.406 -4.867,-3.406 h -18.2 c -2.825,0 -5.115,2.2 -5.115,4.919 v 28.054 c 0,2.714 2.29,4.917 5.115,4.917 h 71.771 c 2.827,0 5.114,-2.203 5.114,-4.917 V 54.534 C 91,51.815 88.712,49.615 85.886,49.615 z"
   id="path3001"
   inkscape:connector-curvature="0" />
	<path
   d="m 35.81,34.276 h 6.653 v 17.188 c 0,0.735 0.617,1.326 1.376,1.326 h 12.317 c 0.762,0 1.376,-0.591 1.376,-1.326 V 34.276 h 6.658 c 0.514,0 0.986,-0.279 1.221,-0.716 0.238,-0.442 0.197,-0.971 -0.102,-1.374 L 51.072,13.048 C 50.815,12.702 50.395,12.495 49.953,12.495 H 49.95 c -0.445,0 -0.859,0.207 -1.119,0.558 L 34.686,32.187 c -0.297,0.403 -0.334,0.932 -0.1,1.374 0.235,0.441 0.71,0.715 1.224,0.715 z"
   id="path3003"
   inkscape:connector-curvature="0" />
</g>
</svg>