<?xml version="1.0" encoding="UTF-8" standalone="no"?>
<!-- Generator: Adobe Illustrator 19.0.0, SVG Export Plug-In . SVG Version: 6.00 Build 0)  -->

<svg
   xmlns:dc="http://purl.org/dc/elements/1.1/"
   xmlns:cc="http://creativecommons.org/ns#"
   xmlns:rdf="http://www.w3.org/1999/02/22-rdf-syntax-ns#"
   xmlns:svg="http://www.w3.org/2000/svg"
   xmlns="http://www.w3.org/2000/svg"
   xmlns:sodipodi="http://sodipodi.sourceforge.net/DTD/sodipodi-0.dtd"
   xmlns:inkscape="http://www.inkscape.org/namespaces/inkscape"
   version="1.1"
   id="Capa_1"
   x="0px"
   y="0px"
   viewBox="0 0 59 59"
   style="enable-background:new 0 0 59 59;"
   xml:space="preserve"
   inkscape:version="0.48.4 r9939"
   width="100%"
   height="100%"
   sodipodi:docname="switch-on.svg"><metadata
   id="metadata47"><rdf:RDF><cc:Work
       rdf:about=""><dc:format>image/svg+xml</dc:format><dc:type
         rdf:resource="http://purl.org/dc/dcmitype/StillImage" /></cc:Work></rdf:RDF></metadata><defs
   id="defs45" /><sodipodi:namedview
   pagecolor="#ffffff"
   bordercolor="#666666"
   borderopacity="1"
   objecttolerance="10"
   gridtolerance="10"
   guidetolerance="10"
   inkscape:pageopacity="0"
   inkscape:pageshadow="2"
   inkscape:window-width="640"
   inkscape:window-height="480"
   id="namedview43"
   showgrid="false"
   inkscape:zoom="4"
   inkscape:cx="29.5"
   inkscape:cy="29.5"
   inkscape:window-x="0"
   inkscape:window-y="0"
   inkscape:window-maximized="0"
   inkscape:current-layer="Capa_1" />
<path
   style="fill:#61b872"
   d="M 56.008,14.5 H 3.992 C 2.34,14.5 1,15.84 1,17.492 V 41.508 C 1,43.16 2.34,44.5 3.992,44.5 H 56.008 C 57.66,44.5 59,43.16 59,41.508 L 59,17.492 C 59,15.84 57.66,14.5 56.008,14.5 z"
   id="path3"
   inkscape:connector-curvature="0" />
<path
   style="fill:#ffffff;stroke:#e7eced;stroke-width:2;stroke-miterlimit:10"
   d="M 28.008,14.5 H 3.992 C 2.34,14.5 1,15.84 1,17.492 V 41.508 C 1,43.16 2.34,44.5 3.992,44.5 H 28.008 C 29.66,44.5 31,43.16 31,41.508 V 17.492 C 31,15.84 29.66,14.5 28.008,14.5 z"
   id="path5"
   inkscape:connector-curvature="0" />
<line
   style="fill:none;stroke:#afb6bb;stroke-width:2;stroke-linecap:round;stroke-miterlimit:10"
   x1="13"
   y1="32.5"
   x2="13"
   y2="26.5"
   id="line7" />
<line
   style="fill:none;stroke:#afb6bb;stroke-width:2;stroke-linecap:round;stroke-miterlimit:10"
   x1="16"
   y1="32.5"
   x2="16"
   y2="26.5"
   id="line9" />
<line
   style="fill:none;stroke:#afb6bb;stroke-width:2;stroke-linecap:round;stroke-miterlimit:10"
   x1="19"
   y1="32.5"
   x2="19"
   y2="26.5"
   id="line11" />
<g
   id="g13"
   transform="matrix(-1,0,0,1,59,0)">
</g>
<g
   id="g15"
   transform="matrix(-1,0,0,1,59,0)">
</g>
<g
   id="g17"
   transform="matrix(-1,0,0,1,59,0)">
</g>
<g
   id="g19"
   transform="matrix(-1,0,0,1,59,0)">
</g>
<g
   id="g21"
   transform="matrix(-1,0,0,1,59,0)">
</g>
<g
   id="g23"
   transform="matrix(-1,0,0,1,59,0)">
</g>
<g
   id="g25"
   transform="matrix(-1,0,0,1,59,0)">
</g>
<g
   id="g27"
   transform="matrix(-1,0,0,1,59,0)">
</g>
<g
   id="g29"
   transform="matrix(-1,0,0,1,59,0)">
</g>
<g
   id="g31"
   transform="matrix(-1,0,0,1,59,0)">
</g>
<g
   id="g33"
   transform="matrix(-1,0,0,1,59,0)">
</g>
<g
   id="g35"
   transform="matrix(-1,0,0,1,59,0)">
</g>
<g
   id="g37"
   transform="matrix(-1,0,0,1,59,0)">
</g>
<g
   id="g39"
   transform="matrix(-1,0,0,1,59,0)">
</g>
<g
   id="g41"
   transform="matrix(-1,0,0,1,59,0)">
</g>
</svg>